<svg xmlns="http://www.w3.org/2000/svg" viewBox="0 0 512 512">
  <circle cx="256" cy="256" r="256" fill="#03045E"/>
  <g transform="translate(256,260)">
    <!-- Petal 1: upper-left, deep teal -->
    <path d="M0,0 Q-28,-70 -50,-155 Q-42,-182 -22,-175 Q8,-140 0,0Z" fill="#0077B6"
      transform="rotate(-40)"/>
    <!-- Petal 2: upper-center, medium teal -->
    <path d="M0,0 Q-30,-78 -42,-168 Q-35,-198 -12,-190 Q15,-152 0,0Z" fill="#0096C7"
      transform="rotate(5)"/>
    <!-- Petal 3: upper-right, lighter teal -->
    <path d="M0,0 Q-26,-70 -40,-162 Q-32,-192 -8,-182 Q18,-148 0,0Z" fill="#48CAE4"
      transform="rotate(48)"/>
    <!-- Petal 4: right, light aqua, wider -->
    <path d="M0,0 Q-18,-62 -26,-135 Q-18,-165 4,-158 Q26,-125 0,0Z" fill="#90E0EF"
      transform="rotate(95)"/>
    <!-- Petal 5: lower-left, medium teal -->
    <path d="M0,0 Q-22,-60 -32,-135 Q-24,-162 -3,-155 Q20,-122 0,0Z" fill="#00B4D8"
      transform="rotate(-85)"/>
    <!-- Central coral dot -->
    <circle cx="0" cy="0" r="24" fill="#F4845F"/>
  </g>
</svg>
